<mxfile host="app.diagrams.net" modified="2024-04-21T15:58:29.975Z" agent="Mozilla/5.0 (Windows NT 10.0; Win64; x64) AppleWebKit/537.36 (KHTML, like Gecko) Chrome/124.0.0.0 Safari/537.36" etag="n9-jDDKL3xk8lWGD_Ug3" version="24.2.7" type="github">
  <diagram name="Página-1" id="zjfhOZG70Gg3JCkFn9vd">
    <mxGraphModel dx="2298" dy="1925" grid="1" gridSize="10" guides="1" tooltips="1" connect="1" arrows="1" fold="1" page="1" pageScale="1" pageWidth="827" pageHeight="1169" math="0" shadow="0">
      <root>
        <mxCell id="0" />
        <mxCell id="1" parent="0" />
        <mxCell id="7EibXv2bXbtWX2PJ1As3-1" value="" style="rounded=0;whiteSpace=wrap;html=1;fillColor=#0b0a09;strokeColor=#d79b00;" vertex="1" parent="1">
          <mxGeometry x="-80" y="-20" width="1450" height="80" as="geometry" />
        </mxCell>
        <mxCell id="7EibXv2bXbtWX2PJ1As3-2" value="" style="ellipse;whiteSpace=wrap;html=1;fillColor=default;gradientColor=none;shadow=0;" vertex="1" parent="1">
          <mxGeometry x="10" y="-20" width="120" height="80" as="geometry" />
        </mxCell>
        <mxCell id="7EibXv2bXbtWX2PJ1As3-3" value="" style="rounded=1;whiteSpace=wrap;html=1;" vertex="1" parent="1">
          <mxGeometry x="920" width="250" height="40" as="geometry" />
        </mxCell>
        <mxCell id="7EibXv2bXbtWX2PJ1As3-4" value="" style="rounded=0;whiteSpace=wrap;html=1;strokeColor=#ffffff;fillColor=#28376c;" vertex="1" parent="1">
          <mxGeometry x="-90" y="60" width="1470" height="790" as="geometry" />
        </mxCell>
        <mxCell id="7EibXv2bXbtWX2PJ1As3-6" value="" style="line;strokeWidth=2;html=1;strokeColor=#ffffff;" vertex="1" parent="1">
          <mxGeometry x="-110" y="180" width="1470" height="10" as="geometry" />
        </mxCell>
        <mxCell id="7EibXv2bXbtWX2PJ1As3-7" value="" style="line;strokeWidth=2;html=1;strokeColor=#ffffff;" vertex="1" parent="1">
          <mxGeometry x="-100" y="320" width="1470" height="10" as="geometry" />
        </mxCell>
        <mxCell id="7EibXv2bXbtWX2PJ1As3-8" value="" style="line;strokeWidth=2;html=1;strokeColor=#ffffff;" vertex="1" parent="1">
          <mxGeometry x="-80" y="450" width="1470" height="10" as="geometry" />
        </mxCell>
        <mxCell id="7EibXv2bXbtWX2PJ1As3-10" value="Currículo:" style="text;html=1;fontSize=24;fontStyle=1;verticalAlign=middle;align=center;fillColor=none;strokeColor=none;fontColor=#00FF00;" vertex="1" parent="1">
          <mxGeometry x="-20" y="90" width="140" height="60" as="geometry" />
        </mxCell>
        <mxCell id="7EibXv2bXbtWX2PJ1As3-12" value="Maestrias:" style="text;html=1;fontSize=24;fontStyle=1;verticalAlign=middle;align=center;fillColor=none;strokeColor=none;fontColor=#00FF00;" vertex="1" parent="1">
          <mxGeometry x="-20" y="210" width="140" height="60" as="geometry" />
        </mxCell>
        <mxCell id="7EibXv2bXbtWX2PJ1As3-13" value="Interesses:" style="text;html=1;fontSize=24;fontStyle=1;verticalAlign=middle;align=center;fillColor=none;strokeColor=none;fontColor=#00FF00;" vertex="1" parent="1">
          <mxGeometry x="-20" y="340" width="140" height="60" as="geometry" />
        </mxCell>
        <mxCell id="7EibXv2bXbtWX2PJ1As3-14" value="Meu nome é Vitor Laguardia&lt;div style=&quot;font-size: 18px;&quot;&gt;Sou estudante da UVV&lt;/div&gt;&lt;div style=&quot;font-size: 18px;&quot;&gt;Tenho 18 anos&lt;/div&gt;&lt;div style=&quot;font-size: 18px;&quot;&gt;&lt;br style=&quot;font-size: 18px;&quot;&gt;&lt;/div&gt;" style="text;html=1;fontSize=18;fontStyle=1;verticalAlign=middle;align=center;fillColor=none;strokeColor=none;fontColor=#FFFFFF;" vertex="1" parent="1">
          <mxGeometry x="220" y="120" width="100" height="40" as="geometry" />
        </mxCell>
        <mxCell id="7EibXv2bXbtWX2PJ1As3-15" value="&lt;div style=&quot;font-size: 18px;&quot;&gt;HTML E CSS&lt;/div&gt;&lt;div style=&quot;font-size: 18px;&quot;&gt;Programação Front-End&lt;/div&gt;&lt;div style=&quot;font-size: 18px;&quot;&gt;Inglês bom&lt;/div&gt;" style="text;html=1;fontSize=18;fontStyle=1;verticalAlign=middle;align=center;fillColor=none;strokeColor=none;fontColor=#FFFFFF;" vertex="1" parent="1">
          <mxGeometry x="210" y="230" width="100" height="40" as="geometry" />
        </mxCell>
        <mxCell id="7EibXv2bXbtWX2PJ1As3-16" value="&lt;div style=&quot;font-size: 18px;&quot;&gt;Negócios&lt;/div&gt;&lt;div style=&quot;font-size: 18px;&quot;&gt;Programação&lt;/div&gt;&lt;div style=&quot;font-size: 18px;&quot;&gt;Estudo&lt;/div&gt;&lt;div style=&quot;font-size: 18px;&quot;&gt;&lt;br&gt;&lt;/div&gt;" style="text;html=1;fontSize=18;fontStyle=1;verticalAlign=middle;align=center;fillColor=none;strokeColor=none;fontColor=#FFFFFF;" vertex="1" parent="1">
          <mxGeometry x="200" y="370" width="100" height="40" as="geometry" />
        </mxCell>
        <mxCell id="7EibXv2bXbtWX2PJ1As3-18" value="" style="rounded=0;whiteSpace=wrap;html=1;strokeColor=#000000;fillColor=#000000;" vertex="1" parent="1">
          <mxGeometry x="-80" y="750" width="1450" height="100" as="geometry" />
        </mxCell>
      </root>
    </mxGraphModel>
  </diagram>
</mxfile>
